<svg width="143" height="141" viewBox="0 0 143 141" fill="none" xmlns="http://www.w3.org/2000/svg">
<mask id="mask0_1_6909" style="mask-type:luminance" maskUnits="userSpaceOnUse" x="0" y="17" width="143" height="107">
<path d="M143 17.625H0V123.375H143V17.625Z" fill="white"/>
</mask>
<g mask="url(#mask0_1_6909)">
<path d="M143.001 85.5708C143.001 92.1753 141.27 98.6645 137.981 104.392C134.692 110.12 129.96 114.886 124.256 118.216C118.551 121.547 112.073 123.324 105.468 123.373C98.8618 123.422 92.3585 121.74 86.6057 118.494C82.7379 121.335 78.1379 123.01 73.3487 123.322C68.5596 123.633 63.7811 122.567 59.5782 120.251C54.3644 122.329 48.8004 123.39 43.1875 123.375C19.3742 123.375 0.00170898 104.589 0.00170898 81.4974C0.00170898 58.4056 19.3742 39.6201 43.1875 39.6201H43.1975C47.9112 31.7568 54.9018 25.5096 63.2441 21.7048C71.5864 17.9 80.8872 16.717 89.9168 18.3123C98.9465 19.9076 107.279 24.206 113.812 30.6388C120.344 37.0717 124.77 45.3359 126.502 54.3381C131.606 57.7903 135.78 62.4453 138.657 67.8923C141.534 73.3396 143.027 79.411 143.001 85.5708ZM86.2228 108.805C87.1018 108.804 87.9602 109.071 88.6836 109.571C91.8941 111.776 95.5151 113.316 99.3315 114.098C103.148 114.881 107.082 114.89 110.902 114.125C114.722 113.36 118.35 111.838 121.571 109.647C124.792 107.456 127.541 104.642 129.655 101.37C131.769 98.0985 133.205 94.436 133.879 90.5998C134.552 86.7636 134.449 82.831 133.577 79.0356C132.703 75.2397 131.078 71.6576 128.796 68.5007C126.514 65.344 123.621 62.6769 120.29 60.6572C119.744 60.3255 119.278 59.8771 118.925 59.3443C118.573 58.8115 118.342 58.2073 118.25 57.5749C117.124 49.9157 113.599 42.8106 108.18 37.281C102.761 31.7514 95.7274 28.0823 88.0915 26.8013C80.4551 25.5202 72.6095 26.6932 65.6816 30.1515C58.7542 33.6098 53.1025 39.1753 49.5382 46.0478C49.1527 46.7943 48.558 47.4122 47.8268 47.8259C47.0955 48.2396 46.2595 48.4312 45.421 48.3773C44.5632 48.3244 43.852 48.2989 43.1838 48.2989C24.1554 48.2989 8.67445 63.1932 8.67445 81.4995C8.67445 99.8059 24.1575 114.7 43.1838 114.7C48.3375 114.716 53.4324 113.603 58.1098 111.44C58.7939 111.124 59.5485 110.991 60.2994 111.055C61.0503 111.119 61.7715 111.377 62.3921 111.804C65.5291 113.961 69.3169 114.963 73.1105 114.64C76.9035 114.317 80.4673 112.689 83.1944 110.033C84.0051 109.244 85.0917 108.803 86.2228 108.805Z" fill="#003083"/>
<path d="M48.8195 66.16H42.3703C42.1137 66.16 41.8676 66.2619 41.6862 66.4433C41.5048 66.6247 41.4028 66.8707 41.4028 67.1273V82.2799H41.4193L49.7859 73.915V67.1278C49.786 66.8713 49.6843 66.6254 49.5031 66.4439C49.3219 66.2624 49.076 66.1603 48.8195 66.16Z" fill="#003083"/>
<path d="M75.2331 59.0924C74.2524 58.1118 72.9217 57.5609 71.5349 57.5609C70.1475 57.5609 68.8173 58.1118 67.8366 59.0924L51.4173 75.5082L49.7868 77.1388L41.4202 85.5037L22.2446 104.675C27.3653 108.419 33.3935 110.727 39.7055 111.36C46.0175 111.994 52.3842 110.93 58.1471 108.279C58.8313 107.963 59.5854 107.831 60.3362 107.895C61.0866 107.959 61.8078 108.217 62.4284 108.644C65.5649 110.801 69.3532 111.803 73.1462 111.48C76.9393 111.157 80.5031 109.528 83.2296 106.872C83.9498 106.173 84.8903 105.744 85.8906 105.66C86.8914 105.576 87.8901 105.84 88.7172 106.41C93.6546 109.809 99.5229 111.601 105.518 111.538C111.513 111.474 117.342 109.56 122.206 106.056L75.2331 59.0924ZM71.1478 98.5699C71.1478 98.7663 71.0694 98.9548 70.9307 99.094C70.7914 99.2327 70.6029 99.3111 70.4064 99.3111H64.3819C64.1854 99.3111 63.9969 99.2327 63.8576 99.094C63.7184 98.9548 63.6405 98.7663 63.6405 98.5699V92.5466C63.6405 92.3502 63.7184 92.1617 63.8576 92.0225C63.9969 91.8838 64.1854 91.8054 64.3819 91.8054H70.4064C70.6029 91.8054 70.7914 91.8838 70.9307 92.0225C71.0694 92.1617 71.1478 92.3502 71.1478 92.5466V98.5699ZM71.1478 89.4479C71.1478 89.6443 71.0694 89.8328 70.9307 89.972C70.7914 90.1113 70.6029 90.1891 70.4064 90.1891H64.3819C64.1854 90.1891 63.9969 90.1113 63.8576 89.972C63.7184 89.8328 63.6405 89.6443 63.6405 89.4479V83.4247C63.6405 83.2283 63.7184 83.0398 63.8576 82.9005C63.9969 82.7618 64.1854 82.6835 64.3819 82.6835H70.4064C70.6029 82.6835 70.7914 82.7618 70.9307 82.9005C71.0694 83.0398 71.1478 83.2283 71.1478 83.4247V89.4479ZM80.8102 98.5699C80.8102 98.7663 80.7318 98.9548 80.5931 99.094C80.4538 99.2327 80.2653 99.3111 80.0688 99.3111H74.0443C73.8479 99.3111 73.6594 99.2327 73.5201 99.094C73.3808 98.9548 73.303 98.7663 73.303 98.5699V92.5466C73.303 92.3502 73.3808 92.1617 73.5201 92.0225C73.6594 91.8838 73.8479 91.8054 74.0443 91.8054H80.0688C80.2653 91.8054 80.4538 91.8838 80.5931 92.0225C80.7318 92.1617 80.8102 92.3502 80.8102 92.5466V98.5699ZM80.8102 89.4479C80.8102 89.6443 80.7318 89.8328 80.5931 89.972C80.4538 90.1113 80.2653 90.1891 80.0688 90.1891H74.0443C73.8479 90.1891 73.6594 90.1113 73.5201 89.972C73.3808 89.8328 73.303 89.6443 73.303 89.4479V83.4247C73.303 83.2283 73.3808 83.0398 73.5201 82.9005C73.6594 82.7618 73.8479 82.6835 74.0443 82.6835H80.0688C80.2653 82.6835 80.4538 82.7618 80.5931 82.9005C80.7318 83.0398 80.8102 83.2283 80.8102 83.4247V89.4479Z" fill="#003083"/>
</g>
</svg>
