<svg width="73" height="55" viewBox="0 0 73 55" fill="none" xmlns="http://www.w3.org/2000/svg">
<mask id="mask0_58_2723" style="mask-type:luminance" maskUnits="userSpaceOnUse" x="0" y="0" width="73" height="55">
<path d="M73 0.875H0V54.125H73V0.875Z" fill="white"/>
</mask>
<g mask="url(#mask0_58_2723)">
<path d="M73.0007 35.0888C73.0007 38.4145 72.117 41.6821 70.4381 44.5663C68.7591 47.4503 66.3432 49.8504 63.4313 51.5272C60.5191 53.2043 57.2123 54.0995 53.8403 54.1241C50.468 54.1486 47.1482 53.3016 44.2114 51.6672C42.237 53.098 39.8887 53.9414 37.4439 54.0982C34.9991 54.255 32.5597 53.7183 30.4141 52.552C27.7525 53.5984 24.9122 54.1323 22.0468 54.1249C9.89045 54.1249 0.000976562 44.6655 0.000976562 33.0377C0.000976562 21.4099 9.89045 11.9506 22.0468 11.9506H22.052C24.4583 7.99102 28.0269 4.84525 32.2856 2.92936C36.5442 1.01348 41.2922 0.417789 45.9017 1.22109C50.5112 2.02439 54.7648 4.18883 58.0997 7.42806C61.4344 10.6673 63.6938 14.8287 64.5783 19.3617C67.1834 21.1001 69.3143 23.4441 70.783 26.1869C72.2519 28.9298 73.0137 31.9871 73.0007 35.0888ZM44.0159 46.7881C44.4647 46.7878 44.9029 46.9224 45.2721 47.1738C46.9111 48.2844 48.7596 49.0597 50.7078 49.4537C52.656 49.8477 54.6645 49.8522 56.6146 49.4673C58.5644 49.0821 60.4164 48.3154 62.0608 47.2122C63.7051 46.1091 65.1084 44.6919 66.1875 43.0444C67.2666 41.3971 67.9998 39.5529 68.3439 37.6212C68.6877 35.6895 68.635 33.7092 68.1895 31.7981C67.7438 29.8866 66.9139 28.0829 65.7491 26.4933C64.584 24.9037 63.1075 23.5607 61.4071 22.5437C61.1282 22.3766 60.8903 22.1509 60.7102 21.8826C60.5302 21.6143 60.4123 21.31 60.3653 20.9916C59.7909 17.1349 57.9911 13.5571 55.2249 10.7727C52.4584 7.9883 48.868 6.14073 44.9699 5.49567C41.0716 4.85058 37.0665 5.44123 33.5299 7.18264C29.9935 8.92408 27.1084 11.7266 25.2888 15.1872C25.0921 15.5631 24.7885 15.8742 24.4152 16.0825C24.0419 16.2909 23.6151 16.3874 23.1871 16.3602C22.7491 16.3335 22.3861 16.3207 22.045 16.3207C12.3312 16.3207 4.42832 23.8207 4.42832 33.0388C4.42832 42.2569 12.3323 49.7565 22.045 49.7565C24.6759 49.7648 27.2768 49.2044 29.6645 48.1152C30.0138 47.956 30.399 47.8891 30.7823 47.9211C31.1656 47.9533 31.5338 48.0834 31.8506 48.2986C33.452 49.3847 35.3856 49.8893 37.3222 49.7267C39.2585 49.5641 41.0778 48.7443 42.47 47.4068C42.8838 47.0096 43.4385 46.7875 44.0159 46.7881Z" fill="white"/>
<path d="M24.9219 25.3146H21.6296C21.4986 25.3146 21.373 25.3659 21.2804 25.4573C21.1878 25.5486 21.1357 25.6725 21.1357 25.8017V33.4317H21.1441L25.4152 29.2196V25.8019C25.4153 25.6728 25.3634 25.5489 25.2708 25.4575C25.1783 25.3662 25.0528 25.3147 24.9219 25.3146Z" fill="white"/>
<path d="M38.406 21.7558C37.9054 21.262 37.2261 20.9846 36.5181 20.9846C35.8099 20.9846 35.1308 21.262 34.6302 21.7558L26.2483 30.0219L25.416 30.843L21.1449 35.0551L11.356 44.7088C13.97 46.5938 17.0473 47.7561 20.2695 48.075C23.4918 48.3941 26.7419 47.8585 29.6838 46.5234C30.0331 46.3646 30.418 46.2979 30.8013 46.3299C31.1844 46.3622 31.5525 46.4922 31.8694 46.7071C33.4705 47.7932 35.4044 48.2978 37.3407 48.1352C39.277 47.9726 41.0963 47.1526 42.4882 45.8151C42.8558 45.463 43.3359 45.247 43.8465 45.2046C44.3574 45.1622 44.8673 45.2955 45.2895 45.5821C47.81 47.2941 50.8057 48.1963 53.866 48.1643C56.9263 48.1323 59.9021 47.1683 62.3852 45.404L38.406 21.7558ZM36.3205 41.6345C36.3205 41.7334 36.2805 41.8283 36.2097 41.8984C36.1386 41.9682 36.0423 42.0077 35.942 42.0077H32.8666C32.7663 42.0077 32.6701 41.9682 32.599 41.8984C32.5279 41.8283 32.4881 41.7334 32.4881 41.6345V38.6015C32.4881 38.5026 32.5279 38.4077 32.599 38.3376C32.6701 38.2677 32.7663 38.2283 32.8666 38.2283H35.942C36.0423 38.2283 36.1386 38.2677 36.2097 38.3376C36.2805 38.4077 36.3205 38.5026 36.3205 38.6015V41.6345ZM36.3205 37.0412C36.3205 37.1401 36.2805 37.235 36.2097 37.3051C36.1386 37.3752 36.0423 37.4144 35.942 37.4144H32.8666C32.7663 37.4144 32.6701 37.3752 32.599 37.3051C32.5279 37.235 32.4881 37.1401 32.4881 37.0412V34.0082C32.4881 33.9093 32.5279 33.8144 32.599 33.7442C32.6701 33.6744 32.7663 33.6349 32.8666 33.6349H35.942C36.0423 33.6349 36.1386 33.6744 36.2097 33.7442C36.2805 33.8144 36.3205 33.9093 36.3205 34.0082V37.0412ZM41.2531 41.6345C41.2531 41.7334 41.2131 41.8283 41.1422 41.8984C41.0711 41.9682 40.9749 42.0077 40.8746 42.0077H37.7992C37.6989 42.0077 37.6026 41.9682 37.5315 41.8984C37.4604 41.8283 37.4207 41.7334 37.4207 41.6345V38.6015C37.4207 38.5026 37.4604 38.4077 37.5315 38.3376C37.6026 38.2677 37.6989 38.2283 37.7992 38.2283H40.8746C40.9749 38.2283 41.0711 38.2677 41.1422 38.3376C41.2131 38.4077 41.2531 38.5026 41.2531 38.6015V41.6345ZM41.2531 37.0412C41.2531 37.1401 41.2131 37.235 41.1422 37.3051C41.0711 37.3752 40.9749 37.4144 40.8746 37.4144H37.7992C37.6989 37.4144 37.6026 37.3752 37.5315 37.3051C37.4604 37.235 37.4207 37.1401 37.4207 37.0412V34.0082C37.4207 33.9093 37.4604 33.8144 37.5315 33.7442C37.6026 33.6744 37.6989 33.6349 37.7992 33.6349H40.8746C40.9749 33.6349 41.0711 33.6744 41.1422 33.7442C41.2131 33.8144 41.2531 33.9093 41.2531 34.0082V37.0412Z" fill="white"/>
</g>
</svg>
